<svg xmlns="http://www.w3.org/2000/svg" version="1.1" xmlns:xlink="http://www.w3.org/1999/xlink" xmlns:svgjs="http://svgjs.com/svgjs" width="1440" height="560" preserveAspectRatio="none" viewBox="0 0 1440">
    <g mask="url(&quot;#SvgjsMask1002&quot;)" fill="none">
        <path d="M-58.94 402.07L-58.94 402.07" stroke="#132e65" stroke-width="1.5"></path>
        <path d="M-58.94 402.07L69.4 360.1" stroke="#132e65" stroke-width="1.5"></path>
        <path d="M-58.94 402.07L-109.1 543.86" stroke="#132e65" stroke-width="1.5"></path>
        <path d="M-58.94 402.07L89.3 502.33" stroke="#132e65" stroke-width="1.5"></path>
        <path d="M-58.94 402.07L-85.96 655.78" stroke="#132e65" stroke-width="1.5"></path>
        <path d="M-109.1 543.86L-109.1 543.86" stroke="#132e65" stroke-width="1.5"></path>
        <path d="M-109.1 543.86L-85.96 655.78" stroke="#132e65" stroke-width="1.5"></path>
        <path d="M-109.1 543.86L89.3 502.33" stroke="#132e65" stroke-width="1.5"></path>
        <path d="M-85.96 655.78L-85.96 655.78" stroke="#132e65" stroke-width="1.5"></path>
        <path d="M-85.96 655.78L90.85 680.73" stroke="#132e65" stroke-width="1.5"></path>
        <path d="M-85.96 655.78L89.3 502.33" stroke="#132e65" stroke-width="1.5"></path>
        <path d="M-85.96 655.78L199.37 677.79" stroke="#132e65" stroke-width="1.5"></path>
        <path d="M-85.96 655.78L190.17 509.63" stroke="#132e65" stroke-width="1.5"></path>
        <path d="M69.4 360.1L69.4 360.1" stroke="#132e65" stroke-width="1.5"></path>
        <path d="M69.4 360.1L89.3 502.33" stroke="#132e65" stroke-width="1.5"></path>
        <path d="M69.4 360.1L190.17 509.63" stroke="#132e65" stroke-width="1.5"></path>
        <path d="M89.3 502.33L89.3 502.33" stroke="#132e65" stroke-width="1.5"></path>
        <path d="M89.3 502.33L190.17 509.63" stroke="#132e65" stroke-width="1.5"></path>
        <path d="M89.3 502.33L90.85 680.73" stroke="#132e65" stroke-width="1.5"></path>
        <path d="M90.85 680.73L90.85 680.73" stroke="#132e65" stroke-width="1.5"></path>
        <path d="M90.85 680.73L199.37 677.79" stroke="#132e65" stroke-width="1.5"></path>
        <path d="M90.85 680.73L190.17 509.63" stroke="#132e65" stroke-width="1.5"></path>
        <path d="M90.85 680.73L-109.1 543.86" stroke="#132e65" stroke-width="1.5"></path>
        <path d="M190.17 509.63L190.17 509.63" stroke="#132e65" stroke-width="1.5"></path>
        <path d="M190.17 509.63L199.37 677.79" stroke="#132e65" stroke-width="1.5"></path>
        <path d="M199.37 677.79L199.37 677.79" stroke="#132e65" stroke-width="1.5"></path>
        <path d="M199.37 677.79L389.21 651.62" stroke="#132e65" stroke-width="1.5"></path>
        <path d="M388.74 384.01L388.74 384.01" stroke="#132e65" stroke-width="1.5"></path>
        <path d="M388.74 384.01L408.48 518.6" stroke="#132e65" stroke-width="1.5"></path>
        <path d="M388.74 384.01L529.4 353.36" stroke="#132e65" stroke-width="1.5"></path>
        <path d="M388.74 384.01L491.34 561.63" stroke="#132e65" stroke-width="1.5"></path>
        <path d="M388.74 384.01L190.17 509.63" stroke="#132e65" stroke-width="1.5"></path>
        <path d="M388.74 384.01L389.21 651.62" stroke="#132e65" stroke-width="1.5"></path>
        <path d="M388.74 384.01L660.94 362.02" stroke="#132e65" stroke-width="1.5"></path>
        <path d="M408.48 518.6L408.48 518.6" stroke="#132e65" stroke-width="1.5"></path>
        <path d="M408.48 518.6L491.34 561.63" stroke="#132e65" stroke-width="1.5"></path>
        <path d="M408.48 518.6L389.21 651.62" stroke="#132e65" stroke-width="1.5"></path>
        <path d="M408.48 518.6L504.09 674.37" stroke="#132e65" stroke-width="1.5"></path>
        <path d="M408.48 518.6L529.4 353.36" stroke="#132e65" stroke-width="1.5"></path>
        <path d="M389.21 651.62L389.21 651.62" stroke="#132e65" stroke-width="1.5"></path>
        <path d="M389.21 651.62L504.09 674.37" stroke="#132e65" stroke-width="1.5"></path>
        <path d="M529.4 353.36L529.4 353.36" stroke="#132e65" stroke-width="1.5"></path>
        <path d="M529.4 353.36L660.94 362.02" stroke="#132e65" stroke-width="1.5"></path>
        <path d="M529.4 353.36L665.73 257.77" stroke="#132e65" stroke-width="1.5"></path>
        <path d="M491.34 561.63L491.34 561.63" stroke="#132e65" stroke-width="1.5"></path>
        <path d="M491.34 561.63L504.09 674.37" stroke="#132e65" stroke-width="1.5"></path>
        <path d="M491.34 561.63L389.21 651.62" stroke="#132e65" stroke-width="1.5"></path>
        <path d="M491.34 561.63L673.78 502.92" stroke="#132e65" stroke-width="1.5"></path>
        <path d="M504.09 674.37L504.09 674.37" stroke="#132e65" stroke-width="1.5"></path>
        <path d="M504.09 674.37L670.17 711.8" stroke="#132e65" stroke-width="1.5"></path>
        <path d="M665.73 257.77L665.73 257.77" stroke="#132e65" stroke-width="1.5"></path>
        <path d="M665.73 257.77L660.94 362.02" stroke="#132e65" stroke-width="1.5"></path>
        <path d="M660.94 362.02L660.94 362.02" stroke="#132e65" stroke-width="1.5"></path>
        <path d="M673.78 502.92L673.78 502.92" stroke="#132e65" stroke-width="1.5"></path>
        <path d="M673.78 502.92L660.94 362.02" stroke="#132e65" stroke-width="1.5"></path>
        <path d="M673.78 502.92L858.32 516.52" stroke="#132e65" stroke-width="1.5"></path>
        <path d="M673.78 502.92L529.4 353.36" stroke="#132e65" stroke-width="1.5"></path>
        <path d="M670.17 711.8L670.17 711.8" stroke="#132e65" stroke-width="1.5"></path>
        <path d="M670.17 711.8L839.89 696.38" stroke="#132e65" stroke-width="1.5"></path>
        <path d="M826.22 198.54L826.22 198.54" stroke="#132e65" stroke-width="1.5"></path>
        <path d="M826.22 198.54L947.5 231.95" stroke="#132e65" stroke-width="1.5"></path>
        <path d="M826.22 198.54L836.49 357.7" stroke="#132e65" stroke-width="1.5"></path>
        <path d="M826.22 198.54L665.73 257.77" stroke="#132e65" stroke-width="1.5"></path>
        <path d="M826.22 198.54L976.32 340.96" stroke="#132e65" stroke-width="1.5"></path>
        <path d="M836.49 357.7L836.49 357.7" stroke="#132e65" stroke-width="1.5"></path>
        <path d="M836.49 357.7L976.32 340.96" stroke="#132e65" stroke-width="1.5"></path>
        <path d="M836.49 357.7L858.32 516.52" stroke="#132e65" stroke-width="1.5"></path>
        <path d="M836.49 357.7L947.5 231.95" stroke="#132e65" stroke-width="1.5"></path>
        <path d="M858.32 516.52L858.32 516.52" stroke="#132e65" stroke-width="1.5"></path>
        <path d="M858.32 516.52L1006.85 534.74" stroke="#132e65" stroke-width="1.5"></path>
        <path d="M839.89 696.38L839.89 696.38" stroke="#132e65" stroke-width="1.5"></path>
        <path d="M839.89 696.38L972.41 685.39" stroke="#132e65" stroke-width="1.5"></path>
        <path d="M839.89 696.38L858.32 516.52" stroke="#132e65" stroke-width="1.5"></path>
        <path d="M839.89 696.38L1006.85 534.74" stroke="#132e65" stroke-width="1.5"></path>
        <path d="M1006.49 -75.03L1006.49 -75.03" stroke="#132e65" stroke-width="1.5"></path>
        <path d="M1006.49 -75.03L1127.56 -92.85" stroke="#132e65" stroke-width="1.5"></path>
        <path d="M1006.49 -75.03L987.4 64.47" stroke="#132e65" stroke-width="1.5"></path>
        <path d="M1006.49 -75.03L1154.54 42.67" stroke="#132e65" stroke-width="1.5"></path>
        <path d="M1006.49 -75.03L1259.69 -56.47" stroke="#132e65" stroke-width="1.5"></path>
        <path d="M1006.49 -75.03L947.5 231.95" stroke="#132e65" stroke-width="1.5"></path>
        <path d="M987.4 64.47L987.4 64.47" stroke="#132e65" stroke-width="1.5"></path>
        <path d="M987.4 64.47L1154.54 42.67" stroke="#132e65" stroke-width="1.5"></path>
        <path d="M987.4 64.47L947.5 231.95" stroke="#132e65" stroke-width="1.5"></path>
        <path d="M987.4 64.47L826.22 198.54" stroke="#132e65" stroke-width="1.5"></path>
        <path d="M987.4 64.47L1127.56 -92.85" stroke="#132e65" stroke-width="1.5"></path>
        <path d="M947.5 231.95L947.5 231.95" stroke="#132e65" stroke-width="1.5"></path>
        <path d="M947.5 231.95L976.32 340.96" stroke="#132e65" stroke-width="1.5"></path>
        <path d="M976.32 340.96L976.32 340.96" stroke="#132e65" stroke-width="1.5"></path>
        <path d="M976.32 340.96L1132.69 351.28" stroke="#132e65" stroke-width="1.5"></path>
        <path d="M976.32 340.96L1006.85 534.74" stroke="#132e65" stroke-width="1.5"></path>
        <path d="M976.32 340.96L1141.9 211.86" stroke="#132e65" stroke-width="1.5"></path>
        <path d="M1006.85 534.74L1006.85 534.74" stroke="#132e65" stroke-width="1.5"></path>
        <path d="M1006.85 534.74L1110.64 543.55" stroke="#132e65" stroke-width="1.5"></path>
        <path d="M1006.85 534.74L972.41 685.39" stroke="#132e65" stroke-width="1.5"></path>
        <path d="M972.41 685.39L972.41 685.39" stroke="#132e65" stroke-width="1.5"></path>
        <path d="M972.41 685.39L1130.64 703.25" stroke="#132e65" stroke-width="1.5"></path>
        <path d="M972.41 685.39L1110.64 543.55" stroke="#132e65" stroke-width="1.5"></path>
        <path d="M972.41 685.39L858.32 516.52" stroke="#132e65" stroke-width="1.5"></path>
        <path d="M972.41 685.39L670.17 711.8" stroke="#132e65" stroke-width="1.5"></path>
        <path d="M1127.56 -92.85L1127.56 -92.85" stroke="#132e65" stroke-width="1.5"></path>
        <path d="M1127.56 -92.85L1259.69 -56.47" stroke="#132e65" stroke-width="1.5"></path>
        <path d="M1127.56 -92.85L1154.54 42.67" stroke="#132e65" stroke-width="1.5"></path>
        <path d="M1127.56 -92.85L1308.04 54.06" stroke="#132e65" stroke-width="1.5"></path>
        <path d="M1154.54 42.67L1154.54 42.67" stroke="#132e65" stroke-width="1.5"></path>
        <path d="M1154.54 42.67L1259.69 -56.47" stroke="#132e65" stroke-width="1.5"></path>
        <path d="M1154.54 42.67L1308.04 54.06" stroke="#132e65" stroke-width="1.5"></path>
        <path d="M1154.54 42.67L1141.9 211.86" stroke="#132e65" stroke-width="1.5"></path>
        <path d="M1141.9 211.86L1141.9 211.86" stroke="#132e65" stroke-width="1.5"></path>
        <path d="M1141.9 211.86L1275.75 241.76" stroke="#132e65" stroke-width="1.5"></path>
        <path d="M1141.9 211.86L1132.69 351.28" stroke="#132e65" stroke-width="1.5"></path>
        <path d="M1141.9 211.86L947.5 231.95" stroke="#132e65" stroke-width="1.5"></path>
        <path d="M1141.9 211.86L987.4 64.47" stroke="#132e65" stroke-width="1.5"></path>
        <path d="M1132.69 351.28L1132.69 351.28" stroke="#132e65" stroke-width="1.5"></path>
        <path d="M1132.69 351.28L1299.49 377.22" stroke="#132e65" stroke-width="1.5"></path>
        <path d="M1132.69 351.28L1275.75 241.76" stroke="#132e65" stroke-width="1.5"></path>
        <path d="M1132.69 351.28L1110.64 543.55" stroke="#132e65" stroke-width="1.5"></path>
        <path d="M1110.64 543.55L1110.64 543.55" stroke="#132e65" stroke-width="1.5"></path>
        <path d="M1110.64 543.55L1130.64 703.25" stroke="#132e65" stroke-width="1.5"></path>
        <path d="M1130.64 703.25L1130.64 703.25" stroke="#132e65" stroke-width="1.5"></path>
        <path d="M1130.64 703.25L1284.49 663.1" stroke="#132e65" stroke-width="1.5"></path>
        <path d="M1130.64 703.25L1006.85 534.74" stroke="#132e65" stroke-width="1.5"></path>
        <path d="M1130.64 703.25L1293.82 490.33" stroke="#132e65" stroke-width="1.5"></path>
        <path d="M1130.64 703.25L1406.46 668.23" stroke="#132e65" stroke-width="1.5"></path>
        <path d="M1259.69 -56.47L1259.69 -56.47" stroke="#132e65" stroke-width="1.5"></path>
        <path d="M1259.69 -56.47L1308.04 54.06" stroke="#132e65" stroke-width="1.5"></path>
        <path d="M1259.69 -56.47L1440.45 -88.15" stroke="#132e65" stroke-width="1.5"></path>
        <path d="M1308.04 54.06L1308.04 54.06" stroke="#132e65" stroke-width="1.5"></path>
        <path d="M1308.04 54.06L1419.2 47.77" stroke="#132e65" stroke-width="1.5"></path>
        <path d="M1275.75 241.76L1275.75 241.76" stroke="#132e65" stroke-width="1.5"></path>
        <path d="M1275.75 241.76L1299.49 377.22" stroke="#132e65" stroke-width="1.5"></path>
        <path d="M1275.75 241.76L1450.53 256.62" stroke="#132e65" stroke-width="1.5"></path>
        <path d="M1275.75 241.76L1403.45 371.19" stroke="#132e65" stroke-width="1.5"></path>
        <path d="M1299.49 377.22L1299.49 377.22" stroke="#132e65" stroke-width="1.5"></path>
        <path d="M1299.49 377.22L1403.45 371.19" stroke="#132e65" stroke-width="1.5"></path>
        <path d="M1299.49 377.22L1293.82 490.33" stroke="#132e65" stroke-width="1.5"></path>
        <path d="M1299.49 377.22L1389.85 518.04" stroke="#132e65" stroke-width="1.5"></path>
        <path d="M1293.82 490.33L1293.82 490.33" stroke="#132e65" stroke-width="1.5"></path>
        <path d="M1293.82 490.33L1389.85 518.04" stroke="#132e65" stroke-width="1.5"></path>
        <path d="M1293.82 490.33L1403.45 371.19" stroke="#132e65" stroke-width="1.5"></path>
        <path d="M1284.49 663.1L1284.49 663.1" stroke="#132e65" stroke-width="1.5"></path>
        <path d="M1284.49 663.1L1406.46 668.23" stroke="#132e65" stroke-width="1.5"></path>
        <path d="M1284.49 663.1L1293.82 490.33" stroke="#132e65" stroke-width="1.5"></path>
        <path d="M1284.49 663.1L1389.85 518.04" stroke="#132e65" stroke-width="1.5"></path>
        <path d="M1284.49 663.1L1110.64 543.55" stroke="#132e65" stroke-width="1.5"></path>
        <path d="M1284.49 663.1L1552.46 689" stroke="#132e65" stroke-width="1.5"></path>
        <path d="M1440.45 -88.15L1440.45 -88.15" stroke="#132e65" stroke-width="1.5"></path>
        <path d="M1440.45 -88.15L1542.56 -67.1" stroke="#132e65" stroke-width="1.5"></path>
        <path d="M1440.45 -88.15L1419.2 47.77" stroke="#132e65" stroke-width="1.5"></path>
        <path d="M1419.2 47.77L1419.2 47.77" stroke="#132e65" stroke-width="1.5"></path>
        <path d="M1419.2 47.77L1565.04 45.86" stroke="#132e65" stroke-width="1.5"></path>
        <path d="M1450.53 256.62L1450.53 256.62" stroke="#132e65" stroke-width="1.5"></path>
        <path d="M1450.53 256.62L1403.45 371.19" stroke="#132e65" stroke-width="1.5"></path>
        <path d="M1450.53 256.62L1596.81 203.6" stroke="#132e65" stroke-width="1.5"></path>
        <path d="M1403.45 371.19L1403.45 371.19" stroke="#132e65" stroke-width="1.5"></path>
        <path d="M1403.45 371.19L1389.85 518.04" stroke="#132e65" stroke-width="1.5"></path>
        <path d="M1389.85 518.04L1389.85 518.04" stroke="#132e65" stroke-width="1.5"></path>
        <path d="M1389.85 518.04L1406.46 668.23" stroke="#132e65" stroke-width="1.5"></path>
        <path d="M1406.46 668.23L1406.46 668.23" stroke="#132e65" stroke-width="1.5"></path>
        <path d="M1406.46 668.23L1552.46 689" stroke="#132e65" stroke-width="1.5"></path>
        <path d="M1406.46 668.23L1293.82 490.33" stroke="#132e65" stroke-width="1.5"></path>
        <path d="M1406.46 668.23L1569.5 519.42" stroke="#132e65" stroke-width="1.5"></path>
        <path d="M1542.56 -67.1L1542.56 -67.1" stroke="#132e65" stroke-width="1.5"></path>
        <path d="M1542.56 -67.1L1565.04 45.86" stroke="#132e65" stroke-width="1.5"></path>
        <path d="M1542.56 -67.1L1419.2 47.77" stroke="#132e65" stroke-width="1.5"></path>
        <path d="M1565.04 45.86L1565.04 45.86" stroke="#132e65" stroke-width="1.5"></path>
        <path d="M1565.04 45.86L1596.81 203.6" stroke="#132e65" stroke-width="1.5"></path>
        <path d="M1565.04 45.86L1440.45 -88.15" stroke="#132e65" stroke-width="1.5"></path>
        <path d="M1596.81 203.6L1596.81 203.6" stroke="#132e65" stroke-width="1.5"></path>
        <path d="M1591.37 397.36L1591.37 397.36" stroke="#132e65" stroke-width="1.5"></path>
        <path d="M1591.37 397.36L1569.5 519.42" stroke="#132e65" stroke-width="1.5"></path>
        <path d="M1591.37 397.36L1403.45 371.19" stroke="#132e65" stroke-width="1.5"></path>
        <path d="M1591.37 397.36L1596.81 203.6" stroke="#132e65" stroke-width="1.5"></path>
        <path d="M1591.37 397.36L1450.53 256.62" stroke="#132e65" stroke-width="1.5"></path>
        <path d="M1591.37 397.36L1389.85 518.04" stroke="#132e65" stroke-width="1.5"></path>
        <path d="M1569.5 519.42L1569.5 519.42" stroke="#132e65" stroke-width="1.5"></path>
        <path d="M1569.5 519.42L1552.46 689" stroke="#132e65" stroke-width="1.5"></path>
        <path d="M1552.46 689L1552.46 689" stroke="#132e65" stroke-width="1.5"></path>
        <path d="M1552.46 689L1389.85 518.04" stroke="#132e65" stroke-width="1.5"></path>
        <path d="M1552.46 689L1591.37 397.36" stroke="#132e65" stroke-width="1.5"></path>
        <path d="M1552.46 689L1293.82 490.33" stroke="#132e65" stroke-width="1.5"></path>
        <circle r="5" cx="-58.94" cy="402.07" fill="#132e65"></circle>
        <circle r="5" cx="-109.1" cy="543.86" fill="#132e65"></circle>
        <circle r="5" cx="-85.96" cy="655.78" fill="#132e65"></circle>
        <circle r="5" cx="69.4" cy="360.1" fill="#132e65"></circle>
        <circle r="5" cx="89.3" cy="502.33" fill="#132e65"></circle>
        <circle r="5" cx="90.85" cy="680.73" fill="#132e65"></circle>
        <circle r="5" cx="190.17" cy="509.63" fill="#132e65"></circle>
        <circle r="5" cx="199.37" cy="677.79" fill="#132e65"></circle>
        <circle r="5" cx="388.74" cy="384.01" fill="#132e65"></circle>
        <circle r="5" cx="408.48" cy="518.6" fill="#132e65"></circle>
        <circle r="5" cx="389.21" cy="651.62" fill="#132e65"></circle>
        <circle r="5" cx="529.4" cy="353.36" fill="#132e65"></circle>
        <circle r="5" cx="491.34" cy="561.63" fill="#132e65"></circle>
        <circle r="5" cx="504.09" cy="674.37" fill="#132e65"></circle>
        <circle r="5" cx="665.73" cy="257.77" fill="#132e65"></circle>
        <circle r="5" cx="660.94" cy="362.02" fill="#132e65"></circle>
        <circle r="5" cx="673.78" cy="502.92" fill="#132e65"></circle>
        <circle r="5" cx="670.17" cy="711.8" fill="#132e65"></circle>
        <circle r="5" cx="826.22" cy="198.54" fill="#132e65"></circle>
        <circle r="5" cx="836.49" cy="357.7" fill="#132e65"></circle>
        <circle r="5" cx="858.32" cy="516.52" fill="#132e65"></circle>
        <circle r="5" cx="839.89" cy="696.38" fill="#132e65"></circle>
        <circle r="5" cx="1006.49" cy="-75.03" fill="#132e65"></circle>
        <circle r="5" cx="987.4" cy="64.47" fill="#132e65"></circle>
        <circle r="5" cx="947.5" cy="231.95" fill="#132e65"></circle>
        <circle r="5" cx="976.32" cy="340.96" fill="#132e65"></circle>
        <circle r="5" cx="1006.85" cy="534.74" fill="#132e65"></circle>
        <circle r="5" cx="972.41" cy="685.39" fill="#132e65"></circle>
        <circle r="5" cx="1127.56" cy="-92.85" fill="#132e65"></circle>
        <circle r="5" cx="1154.54" cy="42.67" fill="#132e65"></circle>
        <circle r="5" cx="1141.9" cy="211.86" fill="#132e65"></circle>
        <circle r="5" cx="1132.69" cy="351.28" fill="#132e65"></circle>
        <circle r="5" cx="1110.64" cy="543.55" fill="#132e65"></circle>
        <circle r="5" cx="1130.64" cy="703.25" fill="#132e65"></circle>
        <circle r="5" cx="1259.69" cy="-56.47" fill="#132e65"></circle>
        <circle r="5" cx="1308.04" cy="54.06" fill="#132e65"></circle>
        <circle r="5" cx="1275.75" cy="241.76" fill="#132e65"></circle>
        <circle r="5" cx="1299.49" cy="377.22" fill="#132e65"></circle>
        <circle r="5" cx="1293.82" cy="490.33" fill="#132e65"></circle>
        <circle r="5" cx="1284.49" cy="663.1" fill="#132e65"></circle>
        <circle r="5" cx="1440.45" cy="-88.15" fill="#132e65"></circle>
        <circle r="5" cx="1419.2" cy="47.77" fill="#132e65"></circle>
        <circle r="5" cx="1450.53" cy="256.62" fill="#132e65"></circle>
        <circle r="5" cx="1403.45" cy="371.19" fill="#132e65"></circle>
        <circle r="5" cx="1389.85" cy="518.04" fill="#132e65"></circle>
        <circle r="5" cx="1406.46" cy="668.23" fill="#132e65"></circle>
        <circle r="5" cx="1542.56" cy="-67.1" fill="#132e65"></circle>
        <circle r="5" cx="1565.04" cy="45.86" fill="#132e65"></circle>
        <circle r="5" cx="1596.81" cy="203.6" fill="#132e65"></circle>
        <circle r="5" cx="1591.37" cy="397.36" fill="#132e65"></circle>
        <circle r="5" cx="1569.5" cy="519.42" fill="#132e65"></circle>
        <circle r="5" cx="1552.46" cy="689" fill="#132e65"></circle>
        <path d="M349.37 541.82L349.37 541.82" stroke="hsl(228.5, 77.2%, 51.5%)" stroke-width="1.5"></path>
        <path d="M349.37 541.82L217.82 542.62" stroke="hsl(228.5, 77.2%, 51.5%)" stroke-width="1.5"></path>
        <path d="M349.37 541.82L401 698.26" stroke="hsl(228.5, 77.2%, 51.5%)" stroke-width="1.5"></path>
        <path d="M349.37 541.82L212.92 662.51" stroke="hsl(228.5, 77.2%, 51.5%)" stroke-width="1.5"></path>
        <path d="M349.37 541.82L553.68 535.07" stroke="hsl(228.5, 77.2%, 51.5%)" stroke-width="1.5"></path>
        <path d="M349.37 541.82L544.2 642.08" stroke="hsl(228.5, 77.2%, 51.5%)" stroke-width="1.5"></path>
        <path d="M349.37 541.82L57.56 650.91" stroke="hsl(228.5, 77.2%, 51.5%)" stroke-width="1.5"></path>
        <path d="M401 698.26L401 698.26" stroke="hsl(228.5, 77.2%, 51.5%)" stroke-width="1.5"></path>
        <path d="M401 698.26L544.2 642.08" stroke="hsl(228.5, 77.2%, 51.5%)" stroke-width="1.5"></path>
        <path d="M401 698.26L212.92 662.51" stroke="hsl(228.5, 77.2%, 51.5%)" stroke-width="1.5"></path>
        <path d="M401 698.26L553.68 535.07" stroke="hsl(228.5, 77.2%, 51.5%)" stroke-width="1.5"></path>
        <path d="M401 698.26L217.82 542.62" stroke="hsl(228.5, 77.2%, 51.5%)" stroke-width="1.5"></path>
        <path d="M401 698.26L683.53 656.24" stroke="hsl(228.5, 77.2%, 51.5%)" stroke-width="1.5"></path>
        <path d="M681.22 558.88L681.22 558.88" stroke="hsl(228.5, 77.2%, 51.5%)" stroke-width="1.5"></path>
        <path d="M681.22 558.88L683.53 656.24" stroke="hsl(228.5, 77.2%, 51.5%)" stroke-width="1.5"></path>
        <path d="M681.22 558.88L553.68 535.07" stroke="hsl(228.5, 77.2%, 51.5%)" stroke-width="1.5"></path>
        <path d="M681.22 558.88L822.03 488.14" stroke="hsl(228.5, 77.2%, 51.5%)" stroke-width="1.5"></path>
        <path d="M681.22 558.88L544.2 642.08" stroke="hsl(228.5, 77.2%, 51.5%)" stroke-width="1.5"></path>
        <path d="M818.87 398.41L818.87 398.41" stroke="hsl(228.5, 77.2%, 51.5%)" stroke-width="1.5"></path>
        <path d="M818.87 398.41L822.03 488.14" stroke="hsl(228.5, 77.2%, 51.5%)" stroke-width="1.5"></path>
        <path d="M818.87 398.41L960.36 391.9" stroke="hsl(228.5, 77.2%, 51.5%)" stroke-width="1.5"></path>
        <path d="M818.87 398.41L681.22 558.88" stroke="hsl(228.5, 77.2%, 51.5%)" stroke-width="1.5"></path>
        <path d="M818.87 398.41L985.39 545.79" stroke="hsl(228.5, 77.2%, 51.5%)" stroke-width="1.5"></path>
        <path d="M818.87 398.41L1004.11 238.13" stroke="hsl(228.5, 77.2%, 51.5%)" stroke-width="1.5"></path>
        <path d="M985.39 545.79L985.39 545.79" stroke="hsl(228.5, 77.2%, 51.5%)" stroke-width="1.5"></path>
        <path d="M985.39 545.79L1095.46 534.78" stroke="hsl(228.5, 77.2%, 51.5%)" stroke-width="1.5"></path>
        <path d="M985.39 545.79L960.36 391.9" stroke="hsl(228.5, 77.2%, 51.5%)" stroke-width="1.5"></path>
        <path d="M985.39 545.79L822.03 488.14" stroke="hsl(228.5, 77.2%, 51.5%)" stroke-width="1.5"></path>
        <path d="M985.39 545.79L1107.45 699.48" stroke="hsl(228.5, 77.2%, 51.5%)" stroke-width="1.5"></path>
        <path d="M985.39 545.79L842.7 686.68" stroke="hsl(228.5, 77.2%, 51.5%)" stroke-width="1.5"></path>
        <path d="M1121.71 196.85L1121.71 196.85" stroke="hsl(228.5, 77.2%, 51.5%)" stroke-width="1.5"></path>
        <path d="M1121.71 196.85L1004.11 238.13" stroke="hsl(228.5, 77.2%, 51.5%)" stroke-width="1.5"></path>
        <path d="M1121.71 196.85L1151.62 355.41" stroke="hsl(228.5, 77.2%, 51.5%)" stroke-width="1.5"></path>
        <path d="M1121.71 196.85L1297.47 213" stroke="hsl(228.5, 77.2%, 51.5%)" stroke-width="1.5"></path>
        <path d="M1121.71 196.85L1258.16 76.66" stroke="hsl(228.5, 77.2%, 51.5%)" stroke-width="1.5"></path>
        <path d="M1151.62 355.41L1151.62 355.41" stroke="hsl(228.5, 77.2%, 51.5%)" stroke-width="1.5"></path>
        <path d="M1151.62 355.41L1263.17 339.98" stroke="hsl(228.5, 77.2%, 51.5%)" stroke-width="1.5"></path>
        <path d="M1297.47 213L1297.47 213" stroke="hsl(228.5, 77.2%, 51.5%)" stroke-width="1.5"></path>
        <path d="M1297.47 213L1263.17 339.98" stroke="hsl(228.5, 77.2%, 51.5%)" stroke-width="1.5"></path>
        <path d="M1297.47 213L1258.16 76.66" stroke="hsl(228.5, 77.2%, 51.5%)" stroke-width="1.5"></path>
        <path d="M1297.47 213L1440.21 245.45" stroke="hsl(228.5, 77.2%, 51.5%)" stroke-width="1.5"></path>
        <path d="M1297.47 213L1408.11 83.8" stroke="hsl(228.5, 77.2%, 51.5%)" stroke-width="1.5"></path>
        <path d="M1252.66 494.8L1252.66 494.8" stroke="hsl(228.5, 77.2%, 51.5%)" stroke-width="1.5"></path>
        <path d="M1252.66 494.8L1388.08 496.75" stroke="hsl(228.5, 77.2%, 51.5%)" stroke-width="1.5"></path>
        <path d="M1252.66 494.8L1263.17 339.98" stroke="hsl(228.5, 77.2%, 51.5%)" stroke-width="1.5"></path>
        <path d="M1252.66 494.8L1095.46 534.78" stroke="hsl(228.5, 77.2%, 51.5%)" stroke-width="1.5"></path>
        <path d="M1252.66 494.8L1151.62 355.41" stroke="hsl(228.5, 77.2%, 51.5%)" stroke-width="1.5"></path>
        <path d="M1252.66 494.8L1461.47 367.92" stroke="hsl(228.5, 77.2%, 51.5%)" stroke-width="1.5"></path>
        <path d="M1440.21 245.45L1440.21 245.45" stroke="hsl(228.5, 77.2%, 51.5%)" stroke-width="1.5"></path>
        <path d="M1440.21 245.45L1461.47 367.92" stroke="hsl(228.5, 77.2%, 51.5%)" stroke-width="1.5"></path>
        <path d="M1440.21 245.45L1408.11 83.8" stroke="hsl(228.5, 77.2%, 51.5%)" stroke-width="1.5"></path>
        <path d="M1440.21 245.45L1605.09 243.76" stroke="hsl(228.5, 77.2%, 51.5%)" stroke-width="1.5"></path>
        <path d="M1440.21 245.45L1263.17 339.98" stroke="hsl(228.5, 77.2%, 51.5%)" stroke-width="1.5"></path>
        <path d="M-79.07 524.64L-79.07 524.64" stroke="hsl(228.5, 77.2%, 51.5%)" stroke-width="1.5"></path>
        <path d="M-79.07 524.64L37.77 527.14" stroke="hsl(228.5, 77.2%, 51.5%)" stroke-width="1.5"></path>
        <path d="M-79.07 524.64L-49.43 660.64" stroke="hsl(228.5, 77.2%, 51.5%)" stroke-width="1.5"></path>
        <path d="M-49.43 660.64L-49.43 660.64" stroke="hsl(228.5, 77.2%, 51.5%)" stroke-width="1.5"></path>
        <path d="M-49.43 660.64L57.56 650.91" stroke="hsl(228.5, 77.2%, 51.5%)" stroke-width="1.5"></path>
        <path d="M37.77 527.14L37.77 527.14" stroke="hsl(228.5, 77.2%, 51.5%)" stroke-width="1.5"></path>
        <path d="M37.77 527.14L57.56 650.91" stroke="hsl(228.5, 77.2%, 51.5%)" stroke-width="1.5"></path>
        <path d="M37.77 527.14L-49.43 660.64" stroke="hsl(228.5, 77.2%, 51.5%)" stroke-width="1.5"></path>
        <path d="M37.77 527.14L217.82 542.62" stroke="hsl(228.5, 77.2%, 51.5%)" stroke-width="1.5"></path>
        <path d="M57.56 650.91L57.56 650.91" stroke="hsl(228.5, 77.2%, 51.5%)" stroke-width="1.5"></path>
        <path d="M57.56 650.91L212.92 662.51" stroke="hsl(228.5, 77.2%, 51.5%)" stroke-width="1.5"></path>
        <path d="M57.56 650.91L-79.07 524.64" stroke="hsl(228.5, 77.2%, 51.5%)" stroke-width="1.5"></path>
        <path d="M217.82 542.62L217.82 542.62" stroke="hsl(228.5, 77.2%, 51.5%)" stroke-width="1.5"></path>
        <path d="M217.82 542.62L212.92 662.51" stroke="hsl(228.5, 77.2%, 51.5%)" stroke-width="1.5"></path>
        <path d="M212.92 662.51L212.92 662.51" stroke="hsl(228.5, 77.2%, 51.5%)" stroke-width="1.5"></path>
        <path d="M553.68 535.07L553.68 535.07" stroke="hsl(228.5, 77.2%, 51.5%)" stroke-width="1.5"></path>
        <path d="M553.68 535.07L544.2 642.08" stroke="hsl(228.5, 77.2%, 51.5%)" stroke-width="1.5"></path>
        <path d="M553.68 535.07L683.53 656.24" stroke="hsl(228.5, 77.2%, 51.5%)" stroke-width="1.5"></path>
        <path d="M544.2 642.08L544.2 642.08" stroke="hsl(228.5, 77.2%, 51.5%)" stroke-width="1.5"></path>
        <path d="M683.53 656.24L683.53 656.24" stroke="hsl(228.5, 77.2%, 51.5%)" stroke-width="1.5"></path>
        <path d="M683.53 656.24L544.2 642.08" stroke="hsl(228.5, 77.2%, 51.5%)" stroke-width="1.5"></path>
        <path d="M683.53 656.24L842.7 686.68" stroke="hsl(228.5, 77.2%, 51.5%)" stroke-width="1.5"></path>
        <path d="M822.03 488.14L822.03 488.14" stroke="hsl(228.5, 77.2%, 51.5%)" stroke-width="1.5"></path>
        <path d="M822.03 488.14L960.36 391.9" stroke="hsl(228.5, 77.2%, 51.5%)" stroke-width="1.5"></path>
        <path d="M842.7 686.68L842.7 686.68" stroke="hsl(228.5, 77.2%, 51.5%)" stroke-width="1.5"></path>
        <path d="M842.7 686.68L822.03 488.14" stroke="hsl(228.5, 77.2%, 51.5%)" stroke-width="1.5"></path>
        <path d="M842.7 686.68L681.22 558.88" stroke="hsl(228.5, 77.2%, 51.5%)" stroke-width="1.5"></path>
        <path d="M1004.11 238.13L1004.11 238.13" stroke="hsl(228.5, 77.2%, 51.5%)" stroke-width="1.5"></path>
        <path d="M1004.11 238.13L960.36 391.9" stroke="hsl(228.5, 77.2%, 51.5%)" stroke-width="1.5"></path>
        <path d="M960.36 391.9L960.36 391.9" stroke="hsl(228.5, 77.2%, 51.5%)" stroke-width="1.5"></path>
        <path d="M960.36 391.9L1151.62 355.41" stroke="hsl(228.5, 77.2%, 51.5%)" stroke-width="1.5"></path>
        <path d="M1095.46 534.78L1095.46 534.78" stroke="hsl(228.5, 77.2%, 51.5%)" stroke-width="1.5"></path>
        <path d="M1095.46 534.78L1107.45 699.48" stroke="hsl(228.5, 77.2%, 51.5%)" stroke-width="1.5"></path>
        <path d="M1095.46 534.78L1151.62 355.41" stroke="hsl(228.5, 77.2%, 51.5%)" stroke-width="1.5"></path>
        <path d="M1095.46 534.78L960.36 391.9" stroke="hsl(228.5, 77.2%, 51.5%)" stroke-width="1.5"></path>
        <path d="M1107.45 699.48L1107.45 699.48" stroke="hsl(228.5, 77.2%, 51.5%)" stroke-width="1.5"></path>
        <path d="M1107.45 699.48L1252.66 494.8" stroke="hsl(228.5, 77.2%, 51.5%)" stroke-width="1.5"></path>
        <path d="M1107.45 699.48L842.7 686.68" stroke="hsl(228.5, 77.2%, 51.5%)" stroke-width="1.5"></path>
        <path d="M1107.45 699.48L960.36 391.9" stroke="hsl(228.5, 77.2%, 51.5%)" stroke-width="1.5"></path>
        <path d="M1258.16 76.66L1258.16 76.66" stroke="hsl(228.5, 77.2%, 51.5%)" stroke-width="1.5"></path>
        <path d="M1258.16 76.66L1408.11 83.8" stroke="hsl(228.5, 77.2%, 51.5%)" stroke-width="1.5"></path>
        <path d="M1258.16 76.66L1389.16 -44.06" stroke="hsl(228.5, 77.2%, 51.5%)" stroke-width="1.5"></path>
        <path d="M1258.16 76.66L1440.21 245.45" stroke="hsl(228.5, 77.2%, 51.5%)" stroke-width="1.5"></path>
        <path d="M1258.16 76.66L1263.17 339.98" stroke="hsl(228.5, 77.2%, 51.5%)" stroke-width="1.5"></path>
        <path d="M1263.17 339.98L1263.17 339.98" stroke="hsl(228.5, 77.2%, 51.5%)" stroke-width="1.5"></path>
        <path d="M1263.17 339.98L1461.47 367.92" stroke="hsl(228.5, 77.2%, 51.5%)" stroke-width="1.5"></path>
        <path d="M1389.16 -44.06L1389.16 -44.06" stroke="hsl(228.5, 77.2%, 51.5%)" stroke-width="1.5"></path>
        <path d="M1389.16 -44.06L1408.11 83.8" stroke="hsl(228.5, 77.2%, 51.5%)" stroke-width="1.5"></path>
        <path d="M1389.16 -44.06L1610.29 45.85" stroke="hsl(228.5, 77.2%, 51.5%)" stroke-width="1.5"></path>
        <path d="M1408.11 83.8L1408.11 83.8" stroke="hsl(228.5, 77.2%, 51.5%)" stroke-width="1.5"></path>
        <path d="M1461.47 367.92L1461.47 367.92" stroke="hsl(228.5, 77.2%, 51.5%)" stroke-width="1.5"></path>
        <path d="M1461.47 367.92L1601.02 388.65" stroke="hsl(228.5, 77.2%, 51.5%)" stroke-width="1.5"></path>
        <path d="M1461.47 367.92L1388.08 496.75" stroke="hsl(228.5, 77.2%, 51.5%)" stroke-width="1.5"></path>
        <path d="M1461.47 367.92L1565.03 504.8" stroke="hsl(228.5, 77.2%, 51.5%)" stroke-width="1.5"></path>
        <path d="M1388.08 496.75L1388.08 496.75" stroke="hsl(228.5, 77.2%, 51.5%)" stroke-width="1.5"></path>
        <path d="M1388.08 496.75L1448.19 653" stroke="hsl(228.5, 77.2%, 51.5%)" stroke-width="1.5"></path>
        <path d="M1388.08 496.75L1565.03 504.8" stroke="hsl(228.5, 77.2%, 51.5%)" stroke-width="1.5"></path>
        <path d="M1448.19 653L1448.19 653" stroke="hsl(228.5, 77.2%, 51.5%)" stroke-width="1.5"></path>
        <path d="M1448.19 653L1551.19 669.09" stroke="hsl(228.5, 77.2%, 51.5%)" stroke-width="1.5"></path>
        <path d="M1610.29 45.85L1610.29 45.85" stroke="hsl(228.5, 77.2%, 51.5%)" stroke-width="1.5"></path>
        <path d="M1610.29 45.85L1605.09 243.76" stroke="hsl(228.5, 77.2%, 51.5%)" stroke-width="1.5"></path>
        <path d="M1610.29 45.85L1408.11 83.8" stroke="hsl(228.5, 77.2%, 51.5%)" stroke-width="1.5"></path>
        <path d="M1610.29 45.85L1440.21 245.45" stroke="hsl(228.5, 77.2%, 51.5%)" stroke-width="1.5"></path>
        <path d="M1610.29 45.85L1601.02 388.65" stroke="hsl(228.5, 77.2%, 51.5%)" stroke-width="1.5"></path>
        <path d="M1605.09 243.76L1605.09 243.76" stroke="hsl(228.5, 77.2%, 51.5%)" stroke-width="1.5"></path>
        <path d="M1605.09 243.76L1601.02 388.65" stroke="hsl(228.5, 77.2%, 51.5%)" stroke-width="1.5"></path>
        <path d="M1605.09 243.76L1461.47 367.92" stroke="hsl(228.5, 77.2%, 51.5%)" stroke-width="1.5"></path>
        <path d="M1601.02 388.65L1601.02 388.65" stroke="hsl(228.5, 77.2%, 51.5%)" stroke-width="1.5"></path>
        <path d="M1601.02 388.65L1565.03 504.8" stroke="hsl(228.5, 77.2%, 51.5%)" stroke-width="1.5"></path>
        <path d="M1565.03 504.8L1565.03 504.8" stroke="hsl(228.5, 77.2%, 51.5%)" stroke-width="1.5"></path>
        <path d="M1551.19 669.09L1551.19 669.09" stroke="hsl(228.5, 77.2%, 51.5%)" stroke-width="1.5"></path>
        <path d="M1551.19 669.09L1565.03 504.8" stroke="hsl(228.5, 77.2%, 51.5%)" stroke-width="1.5"></path>
        <path d="M1551.19 669.09L1388.08 496.75" stroke="hsl(228.5, 77.2%, 51.5%)" stroke-width="1.5"></path>
        <circle r="25" cx="349.37" cy="541.82" fill="url(#SvgjsRadialGradient1003)"></circle>
        <circle r="25" cx="401" cy="698.26" fill="url(#SvgjsRadialGradient1003)"></circle>
        <circle r="25" cx="681.22" cy="558.88" fill="url(#SvgjsRadialGradient1003)"></circle>
        <circle r="25" cx="818.87" cy="398.41" fill="url(#SvgjsRadialGradient1003)"></circle>
        <circle r="25" cx="985.39" cy="545.79" fill="url(#SvgjsRadialGradient1003)"></circle>
        <circle r="25" cx="1121.71" cy="196.85" fill="url(#SvgjsRadialGradient1003)"></circle>
        <circle r="25" cx="1151.62" cy="355.41" fill="url(#SvgjsRadialGradient1003)"></circle>
        <circle r="25" cx="1297.47" cy="213" fill="url(#SvgjsRadialGradient1003)"></circle>
        <circle r="25" cx="1252.66" cy="494.8" fill="url(#SvgjsRadialGradient1003)"></circle>
        <circle r="25" cx="1440.21" cy="245.45" fill="url(#SvgjsRadialGradient1003)"></circle>
        <circle r="5" cx="-79.07" cy="524.64" fill="#8b9ad9"></circle>
        <circle r="5" cx="-49.43" cy="660.64" fill="#8b9ad9"></circle>
        <circle r="5" cx="37.77" cy="527.14" fill="#8b9ad9"></circle>
        <circle r="5" cx="57.56" cy="650.91" fill="#8b9ad9"></circle>
        <circle r="5" cx="217.82" cy="542.62" fill="#8b9ad9"></circle>
        <circle r="5" cx="212.92" cy="662.51" fill="#8b9ad9"></circle>
        <circle r="5" cx="553.68" cy="535.07" fill="#8b9ad9"></circle>
        <circle r="5" cx="544.2" cy="642.08" fill="#8b9ad9"></circle>
        <circle r="5" cx="683.53" cy="656.24" fill="#8b9ad9"></circle>
        <circle r="5" cx="822.03" cy="488.14" fill="#8b9ad9"></circle>
        <circle r="5" cx="842.7" cy="686.68" fill="#8b9ad9"></circle>
        <circle r="5" cx="1004.11" cy="238.13" fill="#8b9ad9"></circle>
        <circle r="5" cx="960.36" cy="391.9" fill="#8b9ad9"></circle>
        <circle r="5" cx="1095.46" cy="534.78" fill="#8b9ad9"></circle>
        <circle r="5" cx="1107.45" cy="699.48" fill="#8b9ad9"></circle>
        <circle r="5" cx="1258.16" cy="76.66" fill="#8b9ad9"></circle>
        <circle r="5" cx="1263.17" cy="339.98" fill="#8b9ad9"></circle>
        <circle r="5" cx="1389.16" cy="-44.06" fill="#8b9ad9"></circle>
        <circle r="5" cx="1408.11" cy="83.8" fill="#8b9ad9"></circle>
        <circle r="5" cx="1461.47" cy="367.92" fill="#8b9ad9"></circle>
        <circle r="5" cx="1388.08" cy="496.75" fill="#8b9ad9"></circle>
        <circle r="5" cx="1448.19" cy="653" fill="#8b9ad9"></circle>
        <circle r="5" cx="1610.29" cy="45.85" fill="#8b9ad9"></circle>
        <circle r="5" cx="1605.09" cy="243.76" fill="#8b9ad9"></circle>
        <circle r="5" cx="1601.02" cy="388.65" fill="#8b9ad9"></circle>
        <circle r="5" cx="1565.03" cy="504.8" fill="#8b9ad9"></circle>
        <circle r="5" cx="1551.19" cy="669.09" fill="#8b9ad9"></circle>
    </g>
    <defs>
        <mask id="SvgjsMask1002">
            <rect width="1440" height="560" fill="#ffffff"></rect>
        </mask>
        <radialGradient id="SvgjsRadialGradient1003">
            <stop stop-color="#ffffff" offset="0.1"></stop>
            <stop stop-color="#1735b3" offset="0.2"></stop>
            <stop stop-color="rgba(23, 53, 179, 0)" offset="1"></stop>
        </radialGradient>
    </defs>
</svg>