<svg xmlns="http://www.w3.org/2000/svg" width="1920" height="1080" preserveAspectRatio="none" xmlns:v="https://vecta.io/nano"><g mask="url(#A)" fill="none"><path fill="#0e2a47" d="M0 0h1920v1080H0z"/><g stroke="#132e65" stroke-width="1.5"><path d="M-59.17 661.34h0"/><path d="M-59.17 661.34l-13.1 134.34m13.1-134.34l161.05-1.83m-161.05 1.83L65.44 801.5"/><path d="M-72.27 795.68h0"/><path d="M-72.27 795.68l137.71 5.82m-137.71-5.82l-9.81 167.64m9.81-167.64l174.15-136.17"/><path d="M-72.27 795.68l179.04 153.93M-72.27 795.68l302.73-106.86m-312.54 274.5h0"/><path d="M-82.08 963.32l188.85-13.71m-188.85 13.71l18.43 197.4m-18.43-197.4l121.65 156.75"/><path d="M-63.65 1160.72h0"/><path d="M-63.65 1160.72l-14.5 98.41m14.5-98.41l103.22-40.65m-103.22 40.65l126.41 147.75"/><path d="M-78.15 1259.13h0"/><path d="M-78.15 1259.13l140.91 49.34m-140.91-49.34l117.72-139.06m62.31-460.56h0"/><path d="M101.88 659.51l128.58 29.31m-128.58-29.31L65.44 801.5"/><path d="M65.44 801.5h0"/><path d="M65.44 801.5l41.33 148.11"/><path d="M106.77 949.61h0"/><path d="M106.77 949.61l134.07 36.12M39.57 1120.07h0"/><path d="M39.57 1120.07l180.44-14.89m-180.44 14.89l67.2-170.46m-67.2 170.46l23.19 188.4"/><path d="M62.76 1308.47h0"/><path d="M62.76 1308.47l189.09-39.24m-189.09 39.24l157.25-203.29"/><path d="M62.76 1308.47l318.7-64.4m-151-555.25h0"/><path d="M230.46 688.82l167.97-50.92m-167.97 50.92L65.44 801.5m165.02-112.68L391 853.05"/><path d="M230.46 688.82l287.06 6.64m-287.06-6.64L106.77 949.61m134.07 36.12h0"/><path d="M240.84 985.73l103.19 10.65m-103.19-10.65l-20.83 119.45m20.83-119.45L391 853.05"/><path d="M240.84 985.73l134.73 173.38M240.84 985.73L39.57 1120.07m180.44-14.89h0m31.84 164.05h0"/><path d="M251.85 1269.23l129.61-25.16m-129.61 25.16l123.72-110.12m-123.72 110.12l-31.84-164.05"/><path d="M251.85 1269.23L39.57 1120.07m212.28 149.16l270.56-30.42M398.43 637.9h0"/><path d="M398.43 637.9l119.09 57.56M391 853.05h0"/><path d="M391 853.05l117.86-41.49M391 853.05l-46.97 143.33M391 853.05l114.14 154.26"/><path d="M344.03 996.38h0"/><path d="M344.03 996.38l161.11 10.93m-129.57 151.8h0"/><path d="M375.57 1159.11l5.89 84.96"/><path d="M381.46 1244.07h0"/><path d="M381.46 1244.07l140.95-5.26m-140.95 5.26l121.85-141.43m-121.85 141.43l-161.45-138.89"/><path d="M381.46 1244.07l-37.43-247.69m173.49-300.92h0"/><path d="M517.52 695.46l-8.66 116.1"/><path d="M508.86 811.56h0"/><path d="M508.86 811.56l-3.72 195.75m3.72-195.75l196.48-2.16"/><path d="M505.14 1007.31h0"/><path d="M505.14 1007.31l-1.83 95.33m1.83-95.33l194.28-3.84"/><path d="M503.31 1102.64h0"/><path d="M503.31 1102.64l19.1 136.17m-19.1-136.17l-127.74 56.47m127.74-56.47L344.03 996.38"/><path d="M522.41 1238.81h0"/><path d="M522.41 1238.81l156.51 31.73m-156.51-31.73l-146.84-79.7m146.84 79.7l-17.27-231.5"/><path d="M522.41 1238.81l268.06 20.85m-98.54-577.69h0"/><path d="M691.93 681.97l98.32 2.41m-98.32-2.41l13.41 127.43m-13.41-127.43l-174.41 13.49"/><path d="M691.93 681.97L820.9 802.26m-115.56 7.14h0"/><path d="M705.34 809.4l115.56-7.14m-115.56 7.14l84.91-125.02M705.34 809.4l-5.92 194.07m5.92-194.07L517.52 695.46"/><path d="M699.42 1003.47h0"/><path d="M699.42 1003.47L812.6 1144.4m-133.68 126.14h0"/><path d="M678.92 1270.54l111.55-10.88m-111.55 10.88L812.6 1144.4m42.01-649.22h0"/><path d="M854.61 495.18l132.79 62.48m-132.79-62.48l118.71-92.8m-118.71 92.8l-64.36 189.2"/><path d="M854.61 495.18l112.01 177.53m-176.37 11.67h0"/><path d="M790.25 684.38l30.65 117.88m-30.65-117.88l176.37-11.67"/><path d="M820.9 802.26h0"/><path d="M820.9 802.26l157.14 29.78M820.9 802.26l145.72-129.55M820.9 802.26l-121.48 201.21M812.6 1144.4h0"/><path d="M812.6 1144.4l-22.13 115.26m22.13-115.26l167.54-12.54"/><path d="M790.47 1259.66h0"/><path d="M790.47 1259.66l181.81 16.68m-181.81-16.68l189.67-127.8m-6.82-729.48h0"/><path d="M973.32 402.38l120.58-24.81m-120.58 24.81l14.08 155.28m-14.08-155.28L1089.8 233.9M973.32 402.38l147.09 143.49"/><path d="M987.4 557.66h0"/><path d="M987.4 557.66L966.62 672.71"/><path d="M966.62 672.71h0"/><path d="M966.62 672.71l11.42 159.33m-11.42-159.33l169.95 27.52"/><path d="M978.04 832.04h0"/><path d="M978.04 832.04l32.7 124.4m-32.7-124.4l178.95 1.6m-178.95-1.6l158.53-131.81"/><path d="M978.04 832.04l151.67 180.32m-118.97-55.92h0"/><path d="M1010.74 956.44l118.97 55.92m-118.97-55.92l-30.6 175.42m30.6-175.42l146.25-122.8"/><path d="M1010.74 956.44l148.34 176.48m-178.94-1.06h0"/><path d="M980.14 1131.86l-7.86 144.48"/><path d="M972.28 1276.34h0"/><path d="M972.28 1276.34l142.38 14.69m38.76-1227.8h0"/><path d="M1153.42 63.23l105.21 2.7m-105.21-2.7l86.66-109.19m-86.66 109.19L1089.8 233.9"/><path d="M1153.42 63.23l139.24 143.03"/><path d="M1153.42 63.23l264.09 35.44"/><path d="M1153.42 63.23l256.74 184.88M1089.8 233.9h0"/><path d="M1089.8 233.9l4.1 143.67"/><path d="M1093.9 377.57h0m26.51 168.3h0"/><path d="M1120.41 545.87L987.4 557.66m133.01-11.79l131.92-30.55m-115.76 184.91h0"/><path d="M1136.57 700.23l20.42 133.41m-20.42-133.41l138.19-22.48"/><path d="M1156.99 833.64h0"/><path d="M1156.99 833.64l83.67 143.19m-83.67-143.19l-27.28 178.72"/><path d="M1129.71 1012.36h0"/><path d="M1129.71 1012.36l110.95-35.53m-110.95 35.53l29.37 120.56"/><path d="M1159.08 1132.92h0"/><path d="M1159.08 1132.92l132.58-23.46m-132.58 23.46l-44.42 158.11m44.42-158.11l81.58-156.09m-81.58 156.09l-178.94-1.06"/><path d="M1114.66 1291.03h0"/><path d="M1114.66 1291.03l192.57-2.13M1240.08-45.96h0"/><path d="M1240.08-45.96l18.55 111.89m-18.55-111.89l183.36-60.41"/><path d="M1258.63 65.93h0"/><path d="M1258.63 65.93l34.03 140.33m-34.03-140.33l158.88 32.74"/><path d="M1258.63 65.93l151.53 182.18M1258.63 65.93L1089.8 233.9m202.86-27.64h0"/><path d="M1292.66 206.26l117.5 41.85m-117.5-41.85l6.02 160.59m-6.02-160.59l124.85-107.59m-124.85 107.59L1089.8 233.9"/><path d="M1298.68 366.85h0"/><path d="M1298.68 366.85l138.63 11.96m-138.63-11.96l-46.35 148.47"/><path d="M1252.33 515.32h0m22.43 162.43h0"/><path d="M1274.76 677.75l144.08-5.61m-144.08 5.61l-22.43-162.43m22.43 162.43l-117.77 155.89m83.67 143.19h0"/><path d="M1240.66 976.83l51 132.63m-51-132.63l199.01-18.39m-199.01 18.39l167.58-142.47"/><path d="M1291.66 1109.46h0"/><path d="M1291.66 1109.46l120.96 30.27m-105.39 149.17h0"/><path d="M1307.23 1288.9l80.45.71m-80.45-.71l-15.57-179.44"/><path d="M1307.23 1288.9l105.39-149.17m-105.39 149.17l-148.15-155.98m148.15 155.98l272.49-27.8M1423.44-106.37h0"/><path d="M1423.44-106.37l170.4 50.98M1417.51 98.67h0"/><path d="M1417.51 98.67l-7.35 149.44"/><path d="M1410.16 248.11h0"/><path d="M1410.16 248.11l27.15 130.7"/><path d="M1437.31 378.81h0"/><path d="M1437.31 378.81l155.61-32.44m-155.61 32.44l104.57 129.63m-104.57-129.63l133.54-143.94m-152.01 437.27h0"/><path d="M1418.84 672.14l126.67 16.76m-126.67-16.76l-10.6 162.22m10.6-162.22l123.04-163.7"/><path d="M1408.24 834.36h0"/><path d="M1408.24 834.36l31.43 124.08m-31.43-124.08l184.43-40.37"/><path d="M1439.67 958.44h0"/><path d="M1439.67 958.44l97.9 14.52m-97.9-14.52l-27.05 181.29"/><path d="M1439.67 958.44l100.7 154.63m-127.75 26.66h0m-24.94 149.88h0"/><path d="M1387.68 1289.61l24.94-149.88m-24.94 149.88l192.04-28.51m14.12-1316.49h0"/><path d="M1593.84-55.39l113.73 12.47"/><path d="M1593.84-55.39l139.69 143.18m-162.68 147.08h0"/><path d="M1570.85 234.87l22.07 111.5m-22.07-111.5l150.45-46.37m-150.45 46.37l-160.69 13.24m160.69-13.24l131.83 152.42m-131.83-152.42l-153.34-136.2"/><path d="M1592.92 346.37h0"/><path d="M1592.92 346.37l109.76 40.92m-160.8 121.15h0"/><path d="M1541.88 508.44l51.04-162.07m-51.04 162.07l3.63 180.46m-3.63-180.46l199.97 21.35"/><path d="M1541.88 508.44l160.8-121.15M1545.51 688.9h0"/><path d="M1545.51 688.9l47.16 105.09m-47.16-105.09l-137.27 145.46m137.27-145.46l213.04-15.06"/><path d="M1592.67 793.99h0"/><path d="M1592.67 793.99l-55.1 178.97"/><path d="M1537.57 972.96h0"/><path d="M1537.57 972.96l2.8 140.11m-2.8-140.11l158.22 19.36m-158.22-19.36l-129.33-138.6"/><path d="M1540.37 1113.07h0"/><path d="M1540.37 1113.07l-127.75 26.66m127.75-26.66l39.35 148.03"/><path d="M1579.72 1261.1h0"/><path d="M1579.72 1261.1l180.54-99.22m-52.69-1204.8h0"/><path d="M1707.57-42.92l25.96 130.71m-25.96-130.71l164.66 3.89"/><path d="M1707.57-42.92l13.73 231.42m12.23-100.71h0"/><path d="M1733.53 87.79L1721.3 188.5m12.23-100.71l155.82 23.03"/><path d="M1721.3 188.5h0"/><path d="M1721.3 188.5l144.07 3.02m-144.07-3.02l168.05-77.68M1721.3 188.5l-18.62 198.79m18.62-198.79l-128.38 157.87"/><path d="M1702.68 387.29h0"/><path d="M1702.68 387.29l39.17 142.5"/><path d="M1741.85 529.79h0"/><path d="M1741.85 529.79l123.98-5.22m-123.98 5.22l16.7 144.05m-16.7-144.05l124.59 146.09"/><path d="M1758.55 673.84h0"/><path d="M1758.55 673.84l107.89 2.04m-170.65 316.44h0"/><path d="M1695.79 992.32l170.34-31.87m-170.34 31.87l64.47 169.56m-64.47-169.56l-155.42 120.75"/><path d="M1760.26 1161.88h0"/><path d="M1760.26 1161.88l116.32-5.37m-116.32 5.37l95.47 136.96m16.5-1337.87h0"/><path d="M1872.23-39.03l17.12 149.85"/><path d="M1889.35 110.82h0"/><path d="M1889.35 110.82l-23.98 80.7m23.98-80.7l168.61-49.29"/><path d="M1865.37 191.52h0"/><path d="M1865.37 191.52L1733.53 87.79m131.84 103.73l167.61 52.54"/><path d="M1865.37 191.52l130.77 187.81m-130.31 145.24h0"/><path d="M1865.83 524.57l.61 151.31"/><path d="M1866.44 675.88h0"/><path d="M1866.44 675.88L1842.88 857"/><path d="M1842.88 857h0"/><path d="M1842.88 857l23.25 103.45M1842.88 857l-147.09 135.32M1842.88 857l-84.33-183.16M1842.88 857l200.74 136.22"/><path d="M1842.88 857l-250.21-63.01m273.46 166.46h0"/><path d="M1866.13 960.45l177.49 32.77m-177.49-32.77l10.45 196.06"/><path d="M1876.58 1156.51h0"/><path d="M1876.58 1156.51l126.75-6.29m-126.75 6.29l-20.85 142.33"/><path d="M1855.73 1298.84h0"/><path d="M1855.73 1298.84l147.6-148.62m-147.6 148.62l-276.01-37.74m276.01 37.74l10.4-338.39M2027-96.8h0"/><path d="M2027-96.8l30.96 158.33M2027-96.8l-154.77 57.77"/><path d="M2027-96.8l-137.65 207.62M2027-96.8l-319.43 53.88"/><path d="M2027-96.8l-161.63 288.32M2027-96.8l5.98 340.86m24.98-182.53h0"/><path d="M2032.98 244.06h0"/><path d="M2032.98 244.06l-36.84 135.27"/><path d="M1996.14 379.33h0"/><path d="M1996.14 379.33l62.4 112.1m-62.4-112.1l-130.31 145.24"/><path d="M2058.54 491.43h0"/><path d="M2058.54 491.43l-192.71 33.14m192.71-33.14l-25.56-247.37"/><path d="M2058.54 491.43l-192.1 184.45"/><path d="M2058.54 491.43l-316.69 38.36m301.77 463.43h0"/><path d="M2043.62 993.22l-40.29 157m40.29-157l-167.04 163.29"/><path d="M2003.33 1150.22h0"/><path d="M2003.33 1150.22l-137.2-189.77m137.2 189.77l-243.07 11.66m243.07-11.66L1842.88 857"/></g><g fill="#132e65"><circle r="5" cx="-59.17" cy="661.34"/><circle r="5" cx="-72.27" cy="795.68"/><circle r="5" cx="-82.08" cy="963.32"/><circle r="5" cx="-63.65" cy="1160.72"/><circle r="5" cx="-78.15" cy="1259.13"/><circle r="5" cx="101.88" cy="659.51"/><circle r="5" cx="65.44" cy="801.5"/><circle r="5" cx="106.77" cy="949.61"/><circle r="5" cx="39.57" cy="1120.07"/><circle r="5" cx="62.76" cy="1308.47"/><circle r="5" cx="230.46" cy="688.82"/><circle r="5" cx="240.84" cy="985.73"/><circle r="5" cx="220.01" cy="1105.18"/><circle r="5" cx="251.85" cy="1269.23"/><circle r="5" cx="398.43" cy="637.9"/><circle r="5" cx="391" cy="853.05"/><circle r="5" cx="344.03" cy="996.38"/><circle r="5" cx="375.57" cy="1159.11"/><circle r="5" cx="381.46" cy="1244.07"/><circle r="5" cx="517.52" cy="695.46"/><circle r="5" cx="508.86" cy="811.56"/><circle r="5" cx="505.14" cy="1007.31"/><circle r="5" cx="503.31" cy="1102.64"/><circle r="5" cx="522.41" cy="1238.81"/><circle r="5" cx="691.93" cy="681.97"/><circle r="5" cx="705.34" cy="809.4"/><circle r="5" cx="699.42" cy="1003.47"/><circle r="5" cx="678.92" cy="1270.54"/><circle r="5" cx="854.61" cy="495.18"/><circle r="5" cx="790.25" cy="684.38"/><circle r="5" cx="820.9" cy="802.26"/><circle r="5" cx="812.6" cy="1144.4"/><circle r="5" cx="790.47" cy="1259.66"/><circle r="5" cx="973.32" cy="402.38"/><circle r="5" cx="987.4" cy="557.66"/><circle r="5" cx="966.62" cy="672.71"/><circle r="5" cx="978.04" cy="832.04"/><circle r="5" cx="1010.74" cy="956.44"/><circle r="5" cx="980.14" cy="1131.86"/><circle r="5" cx="972.28" cy="1276.34"/><circle r="5" cx="1153.42" cy="63.23"/><circle r="5" cx="1089.8" cy="233.9"/><circle r="5" cx="1093.9" cy="377.57"/><circle r="5" cx="1120.41" cy="545.87"/><circle r="5" cx="1136.57" cy="700.23"/><circle r="5" cx="1156.99" cy="833.64"/><circle r="5" cx="1129.71" cy="1012.36"/><circle r="5" cx="1159.08" cy="1132.92"/><circle r="5" cx="1114.66" cy="1291.03"/><circle r="5" cx="1240.08" cy="-45.96"/><circle r="5" cx="1258.63" cy="65.93"/><circle r="5" cx="1292.66" cy="206.26"/><circle r="5" cx="1298.68" cy="366.85"/><circle r="5" cx="1252.33" cy="515.32"/><circle r="5" cx="1274.76" cy="677.75"/><circle r="5" cx="1240.66" cy="976.83"/><circle r="5" cx="1291.66" cy="1109.46"/><circle r="5" cx="1307.23" cy="1288.9"/><circle r="5" cx="1423.44" cy="-106.37"/><circle r="5" cx="1417.51" cy="98.67"/><circle r="5" cx="1410.16" cy="248.11"/><circle r="5" cx="1437.31" cy="378.81"/><circle r="5" cx="1418.84" cy="672.14"/><circle r="5" cx="1408.24" cy="834.36"/><circle r="5" cx="1439.67" cy="958.44"/><circle r="5" cx="1412.62" cy="1139.73"/><circle r="5" cx="1387.68" cy="1289.61"/><circle r="5" cx="1593.84" cy="-55.39"/><circle r="5" cx="1570.85" cy="234.87"/><circle r="5" cx="1592.92" cy="346.37"/><circle r="5" cx="1541.88" cy="508.44"/><circle r="5" cx="1545.51" cy="688.9"/><circle r="5" cx="1592.67" cy="793.99"/><circle r="5" cx="1537.57" cy="972.96"/><circle r="5" cx="1540.37" cy="1113.07"/><circle r="5" cx="1579.72" cy="1261.1"/><circle r="5" cx="1707.57" cy="-42.92"/><circle r="5" cx="1733.53" cy="87.79"/><circle r="5" cx="1721.3" cy="188.5"/><circle r="5" cx="1702.68" cy="387.29"/><circle r="5" cx="1741.85" cy="529.79"/><circle r="5" cx="1758.55" cy="673.84"/><circle r="5" cx="1695.79" cy="992.32"/><circle r="5" cx="1760.26" cy="1161.88"/><circle r="5" cx="1872.23" cy="-39.03"/><circle r="5" cx="1889.35" cy="110.82"/><circle r="5" cx="1865.37" cy="191.52"/><circle r="5" cx="1865.83" cy="524.57"/><circle r="5" cx="1866.44" cy="675.88"/><circle r="5" cx="1842.88" cy="857"/><circle r="5" cx="1866.13" cy="960.45"/><circle r="5" cx="1876.58" cy="1156.51"/><circle r="5" cx="1855.73" cy="1298.84"/><circle r="5" cx="2027" cy="-96.8"/><circle r="5" cx="2057.96" cy="61.53"/><circle r="5" cx="2032.98" cy="244.06"/><circle r="5" cx="1996.14" cy="379.33"/><circle r="5" cx="2058.54" cy="491.43"/><circle r="5" cx="2043.62" cy="993.22"/><circle r="5" cx="2003.33" cy="1150.22"/></g><g stroke-width="1.5" stroke="#2448e3"><path d="M205.57 1087.83h0"/><path d="M205.57 1087.83l-116.9 67.13m116.9-67.13l-102.73-94.68m102.73 94.68l189.31 32.71m-178.8 188.29h0"/><path d="M216.08 1308.83l-139.83-39.18m444.04-146.64h0"/><path d="M520.29 1123.01l-125.41-2.47m125.41 2.47l35.76 125.81M949.9 979.97h0"/><path d="M949.9 979.97l-112.22 3.15m112.22-3.15l13.77 131.61"/><path d="M949.9 979.97l-91.03 154.74m91.03-154.74L830.61 841.4m133.06 270.18h0"/><path d="M963.67 1111.58l-104.8 23.13m104.8-23.13L837.68 983.12m125.99 128.46l187.31 1.04m-187.31-1.04l-.29 188.03m125.84-510.67h0"/><path d="M1089.22 788.94l36.19-77.12m-36.19 77.12l-133.92 1.85m195.68 321.83h0"/><path d="M1150.98 1112.62l-15 128.03m15-128.03l-1.82-146.61m1.82 146.61l151.94 6.76m-20.41-261.6h0"/><path d="M1282.51 857.78l159.62-14.42m-159.62 14.42l-133.35 108.23m153.76 153.37h0"/><path d="M1302.92 1119.38l114.07 42.87m-114.07-42.87l-18.68 174.44m125.48-758.45h0"/><path d="M1409.72 535.37l46.12 122.5m-46.12-122.5l-146.69-6.8m146.69 6.8l-110.59 106.18m110.59-106.18l49.46-153.13m-49.46 153.13l163.73-37m-163.73 37l171.29 166.12"/><path d="M1455.84 657.87h0"/><path d="M1455.84 657.87l125.17 43.62m-125.17-43.62l-156.71-16.32m156.71 16.32l-13.71 185.49m162.08-447.14h0"/><path d="M1604.21 396.22l-30.76 102.15m30.76-102.15l-145.03-13.98m145.03 13.98l155.52-11.5m-155.52 11.5l127.81 112.13m-151.01 193.14h0"/><path d="M1581.01 701.49l-8.69 159.56m-21.34 422.37h0"/><path d="M1550.98 1283.42l-102.61 28.12m102.61-28.12l-133.99-121.17m133.99 121.17l199.3-42.26m290.96-834.41h0"/><path d="M2041.24 406.75l-39.99 85.32m39.99-85.32l-44.95-147.46m44.95 147.46L1881.54 362"/><path d="M2041.24 406.75l-147.46-176.07m147.46 176.07l-198.21 118.03M-77.49 957.57h0"/><path d="M-77.49 957.57l-10.36 169.35m10.36-169.35l180.33 35.58"/><path d="M-77.49 957.57L88.67 1154.96"/><path d="M-77.49 957.57l283.06 130.26"/><path d="M-77.49 957.57l153.74 312.08M-77.49 957.57l-32.38 349.38m22.02-180.03h0"/><path d="M-87.85 1126.92l176.52 28.04m-176.52-28.04l-22.02 180.03"/><path d="M-87.85 1126.92l164.1 142.73m-164.1-142.73l190.69-133.77m-212.71 313.8h0"/><path d="M-109.87 1306.95l186.12-37.3m-186.12 37.3l198.54-151.99m14.17-161.81h0"/><path d="M102.84 993.15L88.67 1154.96"/><path d="M102.84 993.15l-26.59 276.5m12.42-114.69h0"/><path d="M88.67 1154.96L76.25 1269.65"/><path d="M76.25 1269.65h0m309.28-319.47h0"/><path d="M385.53 950.18l108.54-1.32m-108.54 1.32l9.35 170.36m-9.35-170.36l134.76 172.83M385.53 950.18l174.7-137.03m-174.7 137.03l-179.96 137.65"/><path d="M394.88 1120.54h0"/><path d="M394.88 1120.54l1.79 171.31m-1.79-171.31l99.19-171.68m-99.19 171.68l161.17 128.28"/><path d="M396.67 1291.85h0"/><path d="M396.67 1291.85l159.38-43.03m4.18-435.67h0"/><path d="M560.23 813.15l143.7-14.7m-143.7 14.7l-66.16 135.71m66.16-135.71l83.26 184.8m-83.26-184.8l270.38 28.25"/><path d="M560.23 813.15l112.27 279.67M494.07 948.86h0"/><path d="M494.07 948.86l149.42 49.09m-87.44 250.87h0"/><path d="M556.05 1248.82l127.13 35.89m-127.13-35.89l116.45-156m-116.45 156l87.44-250.87m60.44-199.5h0"/><path d="M703.93 798.45l126.68 42.95M643.49 997.95h0"/><path d="M643.49 997.95l29.01 94.87m-29.01-94.87l-123.2 125.06"/><path d="M672.5 1092.82h0"/><path d="M672.5 1092.82l-152.21 30.19m152.21-30.19l186.37 41.89m-186.37-41.89l10.68 191.89"/><path d="M683.18 1284.71h0"/><path d="M683.18 1284.71l177.98 9.01M830.61 841.4h0"/><path d="M830.61 841.4l124.69-50.61M837.68 983.12h0"/><path d="M837.68 983.12l-7.07-141.72m28.26 293.31h0"/><path d="M858.87 1134.71l-21.19-151.59m23.48 310.6h0"/><path d="M861.16 1293.72l102.22 5.89m-102.22-5.89l-2.29-159.01m96.76-432.09h0"/><path d="M955.63 702.62l-.33 88.17m.33-88.17l133.59 86.32"/><path d="M955.63 702.62l169.78 9.2M955.3 790.79h0"/><path d="M955.3 790.79l170.11-78.97M955.3 790.79l-5.4 189.18m5.4-189.18L837.68 983.12m125.7 316.49h0"/><path d="M963.38 1299.61l172.6-58.96m-10.57-528.83h0"/><path d="M1125.41 711.82l173.72-70.27m-173.72 70.27l157.1 145.96m-157.1-145.96l137.62-183.25m-113.87 437.44h0"/><path d="M1149.16 966.01l-59.94-177.07m59.94 177.07L949.9 979.97m199.26-13.96l153.76 153.37"/><path d="M1149.16 966.01l-185.49 145.57m172.31 129.07h0"/><path d="M1135.98 1240.65l148.26 53.17m-21.21-765.25h0"/><path d="M1263.03 528.57l36.1 112.98m-36.1-112.98l192.81 129.3"/><path d="M1299.13 641.55h0m-14.89 652.27h0"/><path d="M1284.24 1293.82l164.13 17.72m-164.13-17.72l132.75-131.57m-132.75 131.57l-133.26-181.2m308.2-730.38h0"/><path d="M1459.18 382.24l114.27 116.13m-131.32 344.99h0"/><path d="M1442.13 843.36l130.19 17.69m-155.33 301.2h0"/><path d="M1416.99 1162.25l31.38 149.29"/><path d="M1448.37 1311.54h0M1598.39-76.62h0"/><path d="M1598.39-76.62l152.58-24.6m-152.58 24.6l160.55 125.44M1598.39-76.62l-11.14 274.18"/><path d="M1587.25 197.56h0"/><path d="M1587.25 197.56l130.53 49.64m-130.53-49.64l16.96 198.66m-30.76 102.15h0"/><path d="M1573.45 498.37l158.57 9.98m-159.7 352.7h0"/><path d="M1572.32 861.05l23 111.8m-23-111.8l125.39-4.27m-125.39 4.27l178.38 105.47m-178.38-105.47l170.47-155.62"/><path d="M1595.32 972.85h0"/><path d="M1595.32 972.85l102.39-116.07m53.26-958h0"/><path d="M1750.97-101.22l7.97 150.04m-7.97-150.04l140.81 62.83"/><path d="M1750.97-101.22l258.46 37.48"/><path d="M1750.97-101.22l265.38 213.57m-265.38-213.57l-163.72 298.78m171.69-148.74h0"/><path d="M1758.94 48.82l132.84-87.21m-132.84 87.21l-41.16 198.38"/><path d="M1717.78 247.2h0"/><path d="M1717.78 247.2l41.95 137.52m-41.95-137.52l176-16.52m-176 16.52l-113.57 149.02"/><path d="M1759.73 384.72h0"/><path d="M1759.73 384.72L1881.54 362m-121.81 22.72l-27.71 123.63"/><path d="M1732.02 508.35h0"/><path d="M1732.02 508.35l111.01 16.43m-100.24 180.65h0"/><path d="M1742.79 705.43l-45.08 151.35m45.08-151.35l-161.78-3.94m161.78 3.94l-10.77-197.08"/><path d="M1697.71 856.78h0"/><path d="M1697.71 856.78l52.99 109.74"/><path d="M1750.7 966.52h0"/><path d="M1750.7 966.52l150.26 33.57m-150.26-33.57l-155.38 6.33m155.38-6.33l-21.69 160.55"/><path d="M1750.7 966.52l145.79 125.19m-167.48 35.36h0"/><path d="M1729.01 1127.07l21.27 114.09m-21.27-114.09l167.48-35.36m-167.48 35.36l124.22 124.47"/><path d="M1750.28 1241.16h0"/><path d="M1750.28 1241.16l102.95 10.38m38.55-1289.93h0"/><path d="M1891.78-38.39l117.65-25.35m-115.65 294.42h0"/><path d="M1893.78 230.68l102.51 28.61m-102.51-28.61L1881.54 362m12.24-131.32l122.57-118.33m-122.57 118.33l-134.05 154.04"/><path d="M1881.54 362h0m-38.51 162.78h0"/><path d="M1843.03 524.78l158.22-32.71m-158.22 32.71l-83.3-140.06"/><path d="M1843.03 524.78L1881.54 362m19.42 638.09h0"/><path d="M1900.96 1000.09l-4.47 91.62m4.47-91.62l102.26-21.03m-102.26 21.03l126.63 155.45"/><path d="M1896.49 1091.71h0"/><path d="M1896.49 1091.71l131.1 63.83m-131.1-63.83l106.73-112.65m-106.73 112.65l-43.26 159.83"/><path d="M1853.23 1251.54h0"/><path d="M1853.23 1251.54l174.36-96m-174.36 96l207.98 48.11m-207.98-48.11l47.73-251.45M2009.43-63.74h0"/><path d="M2009.43-63.74l6.92 176.09m-6.92-176.09L1758.94 48.82"/><path d="M2016.35 112.35h0"/><path d="M2016.35 112.35l-20.06 146.94"/><path d="M1996.29 259.29h0"/><path d="M1996.29 259.29L1881.54 362m119.71 130.07h0"/><path d="M2001.25 492.07L1881.54 362m119.71 130.07l6.44 205.03"/><path d="M2001.25 492.07l-4.96-232.78m11.4 437.81h0"/><path d="M2007.69 697.1l42.73 94.31m-42.73-94.31l-164.66-172.32"/><path d="M2050.42 791.41h0"/><path d="M2050.42 791.41l-47.2 187.65m47.2-187.65l-149.46 208.68m149.46-208.68l-49.17-299.34m49.17 299.34l-307.63-85.98"/><path d="M2003.22 979.06h0"/><path d="M2003.22 979.06l24.37 176.48m-24.37-176.48l-252.52-12.54"/><path d="M2027.59 1155.54h0"/><path d="M2027.59 1155.54l33.62 144.11m-33.62-144.11l-277.31 85.62"/><path d="M2061.21 1299.65h0"/></g><g fill="url(#B)"><circle r="25" cx="205.57" cy="1087.83"/><circle r="25" cx="216.08" cy="1308.83"/><circle r="25" cx="520.29" cy="1123.01"/><circle r="25" cx="949.9" cy="979.97"/><circle r="25" cx="963.67" cy="1111.58"/><circle r="25" cx="1089.22" cy="788.94"/><circle r="25" cx="1150.98" cy="1112.62"/><circle r="25" cx="1282.51" cy="857.78"/><circle r="25" cx="1302.92" cy="1119.38"/><circle r="25" cx="1409.72" cy="535.37"/><circle r="25" cx="1455.84" cy="657.87"/><circle r="25" cx="1604.21" cy="396.22"/><circle r="25" cx="1581.01" cy="701.49"/><circle r="25" cx="1550.98" cy="1283.42"/><circle r="25" cx="2041.24" cy="406.75"/></g><g fill="#8b9ad9"><circle r="5" cx="-77.49" cy="957.57"/><circle r="5" cx="-87.85" cy="1126.92"/><circle r="5" cx="-109.87" cy="1306.95"/><circle r="5" cx="102.84" cy="993.15"/><circle r="5" cx="88.67" cy="1154.96"/><circle r="5" cx="76.25" cy="1269.65"/><circle r="5" cx="385.53" cy="950.18"/><circle r="5" cx="394.88" cy="1120.54"/><circle r="5" cx="396.67" cy="1291.85"/><circle r="5" cx="560.23" cy="813.15"/><circle r="5" cx="494.07" cy="948.86"/><circle r="5" cx="556.05" cy="1248.82"/><circle r="5" cx="703.93" cy="798.45"/><circle r="5" cx="643.49" cy="997.95"/><circle r="5" cx="672.5" cy="1092.82"/><circle r="5" cx="683.18" cy="1284.71"/><circle r="5" cx="830.61" cy="841.4"/><circle r="5" cx="837.68" cy="983.12"/><circle r="5" cx="858.87" cy="1134.71"/><circle r="5" cx="861.16" cy="1293.72"/><circle r="5" cx="955.63" cy="702.62"/><circle r="5" cx="955.3" cy="790.79"/><circle r="5" cx="963.38" cy="1299.61"/><circle r="5" cx="1125.41" cy="711.82"/><circle r="5" cx="1149.16" cy="966.01"/><circle r="5" cx="1135.98" cy="1240.65"/><circle r="5" cx="1263.03" cy="528.57"/><circle r="5" cx="1299.13" cy="641.55"/><circle r="5" cx="1284.24" cy="1293.82"/><circle r="5" cx="1459.18" cy="382.24"/><circle r="5" cx="1442.13" cy="843.36"/><circle r="5" cx="1416.99" cy="1162.25"/><circle r="5" cx="1448.37" cy="1311.54"/><circle r="5" cx="1598.39" cy="-76.62"/><circle r="5" cx="1587.25" cy="197.56"/><circle r="5" cx="1573.45" cy="498.37"/><circle r="5" cx="1572.32" cy="861.05"/><circle r="5" cx="1595.32" cy="972.85"/><circle r="5" cx="1750.97" cy="-101.22"/><circle r="5" cx="1758.94" cy="48.82"/><circle r="5" cx="1717.78" cy="247.2"/><circle r="5" cx="1759.73" cy="384.72"/><circle r="5" cx="1732.02" cy="508.35"/><circle r="5" cx="1742.79" cy="705.43"/><circle r="5" cx="1697.71" cy="856.78"/><circle r="5" cx="1750.7" cy="966.52"/><circle r="5" cx="1729.01" cy="1127.07"/><circle r="5" cx="1750.28" cy="1241.16"/><circle r="5" cx="1891.78" cy="-38.39"/><circle r="5" cx="1893.78" cy="230.68"/><circle r="5" cx="1881.54" cy="362"/><circle r="5" cx="1843.03" cy="524.78"/><circle r="5" cx="1900.96" cy="1000.09"/><circle r="5" cx="1896.49" cy="1091.71"/><circle r="5" cx="1853.23" cy="1251.54"/><circle r="5" cx="2009.43" cy="-63.74"/><circle r="5" cx="2016.35" cy="112.35"/><circle r="5" cx="1996.29" cy="259.29"/><circle r="5" cx="2001.25" cy="492.07"/><circle r="5" cx="2007.69" cy="697.1"/><circle r="5" cx="2050.42" cy="791.41"/><circle r="5" cx="2003.22" cy="979.06"/><circle r="5" cx="2027.59" cy="1155.54"/><circle r="5" cx="2061.21" cy="1299.65"/></g></g><defs><mask id="A"><path fill="#fff" d="M0 0h1920v1080H0z"/></mask><radialGradient id="B"><stop stop-color="#fff" offset=".1"/><stop stop-color="#1735b3" offset=".2"/><stop stop-color="rgba(23, 53, 179, 0)" offset="1"/></radialGradient></defs></svg>